<svg width="37" height="37" viewBox="0 0 37 37" fill="none" xmlns="http://www.w3.org/2000/svg">
<rect x="0.5" y="0.439941" width="36" height="36" rx="18" fill="#81C7BC"/>
<path d="M18.5 8.43994C12.977 8.43994 8.5 12.9169 8.5 18.4399C8.5 22.8589 11.365 26.6059 15.339 27.9289C15.839 28.0189 16.021 27.7109 16.021 27.4449C16.021 27.2089 16.012 26.5789 16.007 25.7459C13.225 26.3479 12.638 24.4059 12.638 24.4059C12.183 23.2489 11.528 22.9409 11.528 22.9409C10.619 22.3209 11.597 22.3329 11.597 22.3329C12.601 22.4039 13.129 23.3629 13.129 23.3629C14.02 24.8919 15.47 24.4519 16.039 24.1959C16.13 23.5489 16.388 23.1099 16.674 22.8589C14.454 22.6079 12.119 21.7479 12.119 17.9159C12.119 16.8249 12.509 15.9319 13.149 15.2339C13.046 14.9799 12.702 13.9639 13.246 12.5879C13.246 12.5879 14.086 12.3189 15.996 13.6129C16.795 13.3899 17.65 13.2799 18.5 13.2759C19.35 13.2799 20.205 13.3899 21.004 13.6119C22.913 12.3179 23.752 12.5869 23.752 12.5869C24.298 13.9629 23.954 14.9809 23.852 15.2329C24.492 15.9319 24.878 16.8239 24.878 17.9149C24.878 21.7559 22.541 22.6019 20.313 22.8499C20.672 23.1569 20.992 23.7669 20.992 24.7019C20.992 26.0369 20.98 27.1169 20.98 27.4429C20.98 27.7119 21.16 28.0219 21.668 27.9239C25.638 26.6009 28.5 22.8559 28.5 18.4399C28.5 12.9169 24.023 8.43994 18.5 8.43994Z" fill="black"/>
</svg>
