<svg width="37" height="37" viewBox="0 0 37 37" fill="none" xmlns="http://www.w3.org/2000/svg">
<rect x="0.5" y="0.439941" width="36" height="36" rx="18" fill="#81C7BC"/>
<path d="M22.8 17.7399C22.7 17.7399 22.6 17.6399 22.6 17.6399C22.5 15.0399 21.1 13.6399 18.7 13.6399C17.3 13.6399 16.1 14.2399 15.4 15.3399L16.7 16.2399C17.2 15.4399 18.1 15.2399 18.7 15.2399C19.5 15.2399 20.1 15.4399 20.4 15.9399C20.7 16.2399 20.9 16.7399 20.9 17.2399C20.2 17.1399 19.5 17.0399 18.7 17.1399C16.5 17.2399 15 18.5399 15.1 20.3399C15.1 21.2399 15.6 22.0399 16.4 22.5399C17.1 22.9399 17.9 23.1399 18.8 23.1399C20 23.0399 20.9 22.6399 21.5 21.8399C22 21.2399 22.3 20.4399 22.4 19.4399C23 19.7399 23.4 20.2399 23.6 20.7399C24 21.6399 24 23.1399 22.8 24.3399C21.7 25.4399 20.5 25.8399 18.5 25.8399C16.4 25.8399 14.7 25.1399 13.7 23.8399C12.7 22.5399 12.2 20.7399 12.2 18.4399C12.2 16.1399 12.7 14.3399 13.7 13.0399C14.8 11.7399 16.4 11.0399 18.5 11.0399C20.7 11.0399 22.3 11.7399 23.4 13.0399C23.9 13.7399 24.3 14.5399 24.6 15.5399L26.1 15.1399C25.8 13.9399 25.3 12.9399 24.6 12.0399C23.3 10.3399 21.3 9.43994 18.6 9.43994C16 9.43994 13.9 10.3399 12.6 12.0399C11.4 13.6399 10.8 15.7399 10.8 18.4399C10.8 21.1399 11.4 23.2399 12.7 24.8399C14.1 26.5399 16.1 27.4399 18.7 27.4399C21 27.4399 22.7 26.8399 24 25.4399C25.8 23.6399 25.7 21.4399 25.1 20.0399C24.7 19.1399 23.9 18.3399 22.8 17.7399ZM18.8 21.5399C17.8 21.6399 16.8 21.1399 16.8 20.2399C16.8 19.5399 17.3 18.7399 18.9 18.6399H19.4C20 18.6399 20.5 18.7399 21 18.8399C20.8 21.1399 19.7 21.5399 18.8 21.5399Z" fill="black"/>
</svg>
